<svg width="70" height="70" viewBox="0 0 70 70" xmlns="http://www.w3.org/2000/svg"><title>Shape</title><path d="M65.937 4.063c-2.55-2.55-5.62-3.825-9.21-3.825H13.274c-3.59 0-6.66 1.275-9.21 3.825-2.55 2.55-3.826 5.62-3.826 9.21v43.453c0 3.59 1.275 6.66 3.825 9.21 2.55 2.55 5.62 3.826 9.21 3.826h43.453c3.59 0 6.66-1.275 9.21-3.825 2.55-2.55 3.825-5.62 3.825-9.21V13.273c0-3.59-1.274-6.662-3.823-9.21zm-6.54 31.933h-7.92v28.74h-11.86v-28.74h-5.93v-9.913h5.93v-5.93c0-4.255.996-7.468 2.987-9.64 1.99-2.174 5.28-3.26 9.867-3.26h7.922v9.913h-4.978c-1.69 0-2.77.294-3.237.883-.468.587-.7 1.62-.7 3.1v4.933h8.96l-1.04 9.913z" fill="#3B5998" fill-rule="evenodd"/></svg>